<svg width="85" height="19" viewBox="0 0 85 19" fill="none" xmlns="http://www.w3.org/2000/svg">
<path fill-rule="evenodd" clip-rule="evenodd" d="M6.82955 0.5H13.8792L17.3233 6.59543L10.5736 18.5H3.52273L0 12.3282L6.82955 0.5ZM7.11797 2.03858L1.17505 12.3311L3.81607 16.9583L9.69216 6.59457L7.11797 2.03858ZM10.5736 7.10624L4.6932 17.4775H9.98182L15.8621 7.10624H10.5736ZM15.8637 6.08376H10.574L7.99687 1.52253H13.2865L15.8637 6.08376Z" fill="#DDFFDC"/>
<path fill-rule="evenodd" clip-rule="evenodd" d="M33.6988 12.3705L30.1327 18.5L23.0741 18.4483L16.1049 6.63042L19.6716 0.5L26.8368 0.521445L33.6988 12.3705ZM32.2109 11.8523L26.2397 1.54164L20.8679 1.52557L26.935 11.8138L32.2109 11.8523ZM26.0429 12.3243L19.9714 2.02867L17.2961 6.62699L23.3676 16.9227L26.0429 12.3243ZM24.2588 17.4349L26.9345 12.8358L32.2164 12.8744L29.5407 17.4734L24.2588 17.4349Z" fill="#DDFFDC"/>
<path d="M84.5943 15.1041H83.3997V3.90451H84.5943V15.1041Z" fill="#DDFFDC"/>
<path d="M81.1662 15.1034H79.9716V6.83066H81.1662V15.1034ZM76.8656 15.2527C76.3081 15.2527 75.7855 15.1432 75.2977 14.9242C74.8198 14.6952 74.3967 14.3866 74.0284 13.9984C73.66 13.6002 73.3713 13.1422 73.1623 12.6246C72.9532 12.1069 72.8487 11.5544 72.8487 10.967C72.8487 10.3797 72.9532 9.82717 73.1623 9.3095C73.3713 8.79183 73.66 8.33887 74.0284 7.95062C74.3967 7.55241 74.8198 7.2438 75.2977 7.02479C75.7855 6.79582 76.3081 6.68134 76.8656 6.68134C77.4231 6.68134 77.9457 6.79582 78.4335 7.02479C78.9313 7.2438 79.3644 7.55241 79.7327 7.95062C80.101 8.33887 80.3897 8.79183 80.5988 9.3095C80.8079 9.82717 80.9124 10.3797 80.9124 10.967C80.9124 11.5544 80.8079 12.1069 80.5988 12.6246C80.3897 13.1422 80.101 13.6002 79.7327 13.9984C79.3644 14.3866 78.9313 14.6952 78.4335 14.9242C77.9457 15.1432 77.4231 15.2527 76.8656 15.2527ZM77.0299 14.0731C77.5674 14.0731 78.0602 13.9436 78.5082 13.6848C78.9562 13.426 79.3096 13.0626 79.5684 12.5947C79.8372 12.1268 79.9716 11.5843 79.9716 10.967C79.9716 10.3399 79.8372 9.7973 79.5684 9.33937C79.3096 8.87147 78.9562 8.50811 78.5082 8.24927C78.0602 7.99044 77.5674 7.86102 77.0299 7.86102C76.5022 7.86102 76.0144 7.99044 75.5665 8.24927C75.1284 8.50811 74.775 8.87147 74.5062 9.33937C74.2474 9.7973 74.118 10.3399 74.118 10.967C74.118 11.5843 74.2474 12.1268 74.5062 12.5947C74.775 13.0626 75.1284 13.426 75.5665 13.6848C76.0144 13.9436 76.5022 14.0731 77.0299 14.0731Z" fill="#DDFFDC"/>
<path d="M71.0558 15.1041H69.8611V3.90451H71.0558V15.1041ZM66.7551 15.2534C66.1976 15.2534 65.675 15.1439 65.1872 14.9249C64.7093 14.6959 64.2862 14.3873 63.9179 13.9991C63.5496 13.6008 63.2609 13.1429 63.0518 12.6252C62.8427 12.1076 62.7382 11.5551 62.7382 10.9677C62.7382 10.3803 62.8427 9.82784 63.0518 9.31017C63.2609 8.7925 63.5496 8.33954 63.9179 7.95129C64.2862 7.55308 64.7093 7.24447 65.1872 7.02546C65.675 6.79649 66.1976 6.682 66.7551 6.682C67.3126 6.682 67.8353 6.79649 68.3231 7.02546C68.8208 7.24447 69.2539 7.55308 69.6222 7.95129C69.9906 8.33954 70.2793 8.7925 70.4883 9.31017C70.6974 9.82784 70.8019 10.3803 70.8019 10.9677C70.8019 11.5551 70.6974 12.1076 70.4883 12.6252C70.2793 13.1429 69.9906 13.6008 69.6222 13.9991C69.2539 14.3873 68.8208 14.6959 68.3231 14.9249C67.8353 15.1439 67.3126 15.2534 66.7551 15.2534ZM66.9194 14.0737C67.457 14.0737 67.9498 13.9443 68.3977 13.6855C68.8457 13.4266 69.1991 13.0633 69.458 12.5954C69.7268 12.1275 69.8611 11.5849 69.8611 10.9677C69.8611 10.3405 69.7268 9.79797 69.458 9.34003C69.1991 8.87214 68.8457 8.50878 68.3977 8.24994C67.9498 7.99111 67.457 7.86169 66.9194 7.86169C66.3918 7.86169 65.904 7.99111 65.456 8.24994C65.018 8.50878 64.6645 8.87214 64.3958 9.34003C64.1369 9.79797 64.0075 10.3405 64.0075 10.9677C64.0075 11.5849 64.1369 12.1275 64.3958 12.5954C64.6645 13.0633 65.018 13.4266 65.456 13.6855C65.904 13.9443 66.3918 14.0737 66.9194 14.0737Z" fill="#DDFFDC"/>
<path d="M57.4881 15.2527C56.9107 15.2527 56.3631 15.1432 55.8455 14.9242C55.3378 14.6952 54.8898 14.3866 54.5015 13.9984C54.1232 13.6002 53.8246 13.1422 53.6056 12.6246C53.3865 12.1069 53.277 11.5544 53.277 10.967C53.277 10.3797 53.3865 9.82717 53.6056 9.3095C53.8246 8.79183 54.1232 8.33887 54.5015 7.95062C54.8898 7.55241 55.3378 7.2438 55.8455 7.02479C56.3631 6.79582 56.9107 6.68134 57.4881 6.68134C58.0754 6.68134 58.623 6.79582 59.1307 7.02479C59.6384 7.2438 60.0814 7.55241 60.4597 7.95062C60.8479 8.33887 61.1516 8.79183 61.3706 9.3095C61.5896 9.82717 61.6991 10.3797 61.6991 10.967C61.6991 11.5544 61.5896 12.1069 61.3706 12.6246C61.1516 13.1422 60.8479 13.6002 60.4597 13.9984C60.0814 14.3866 59.6384 14.6952 59.1307 14.9242C58.623 15.1432 58.0754 15.2527 57.4881 15.2527ZM57.4881 14.0731C58.0257 14.0731 58.5184 13.9436 58.9664 13.6848C59.4144 13.426 59.7678 13.0676 60.0266 12.6096C60.2954 12.1417 60.4298 11.5942 60.4298 10.967C60.4298 10.3399 60.2954 9.79233 60.0266 9.32443C59.7678 8.85654 59.4144 8.49815 58.9664 8.24927C58.5184 7.99044 58.0257 7.86102 57.4881 7.86102C56.9505 7.86102 56.4577 7.99044 56.0097 8.24927C55.5617 8.49815 55.2034 8.85654 54.9346 9.32443C54.6658 9.79233 54.5314 10.3399 54.5314 10.967C54.5314 11.5942 54.6658 12.1417 54.9346 12.6096C55.2034 13.0676 55.5617 13.426 56.0097 13.6848C56.4577 13.9436 56.9505 14.0731 57.4881 14.0731Z" fill="#DDFFDC"/>
<path d="M46.1719 13.327L48.9494 3.90445H51.4133V15.104H50.2187V4.62122L50.6667 5.0692H49.3526L49.935 4.60629L46.7991 15.104H45.485L42.3492 4.60629L42.9315 5.0692H41.6175L42.0654 4.62122V15.104H40.8708V3.90445H43.3347L46.0973 13.2822L45.8733 13.1777H46.3661L46.1719 13.327Z" fill="#DDFFDC"/>
</svg>
